<svg width="75" height="50" viewBox="0 0 75 50" fill="none" xmlns="http://www.w3.org/2000/svg">
<path d="M25.2534 44.8665H29.6529V43.9192H26.3472V37.8206H25.2534V44.8665ZM32.1277 44.9543C32.3621 44.9543 32.5785 44.9218 32.7771 44.8567C32.9757 44.7916 33.1531 44.6972 33.3093 44.5735C33.4656 44.4465 33.5958 44.2935 33.7 44.1145H33.7781V44.8665H34.8328V41.2385C34.8328 40.8674 34.7514 40.55 34.5886 40.2864C34.4291 40.0194 34.1931 39.816 33.8806 39.676C33.5714 39.5328 33.1938 39.4612 32.7478 39.4612C32.3474 39.4612 31.991 39.5214 31.6785 39.6418C31.3692 39.7623 31.1186 39.9316 30.9265 40.1497C30.7377 40.3645 30.6222 40.6184 30.5798 40.9114L30.575 40.9456H31.5955L31.6052 40.9309C31.6671 40.7421 31.7908 40.5956 31.9763 40.4915C32.1651 40.3873 32.4076 40.3352 32.7039 40.3352C33.0587 40.3352 33.3256 40.4133 33.5046 40.5696C33.6869 40.7226 33.7781 40.9456 33.7781 41.2385V42.9084C33.7781 43.1363 33.7195 43.3414 33.6023 43.5237C33.4851 43.7027 33.3224 43.8459 33.114 43.9534C32.9089 44.0575 32.6746 44.1096 32.4109 44.1096C32.1277 44.1096 31.8933 44.0413 31.7078 43.9045C31.5222 43.7646 31.4295 43.5741 31.4295 43.3333V43.3235C31.4295 43.0859 31.5157 42.9019 31.6882 42.7717C31.8608 42.6383 32.1293 42.5601 32.4939 42.5374L34.3054 42.4202V41.6731L32.3474 41.7903C31.9275 41.8163 31.5694 41.8944 31.2732 42.0247C30.9802 42.1516 30.7556 42.3274 30.5994 42.552C30.4464 42.7766 30.3699 43.0484 30.3699 43.3674V43.3772C30.3699 43.6962 30.4464 43.9745 30.5994 44.2122C30.7524 44.4498 30.9607 44.6337 31.2244 44.7639C31.4913 44.8909 31.7924 44.9543 32.1277 44.9543ZM38.9092 44.9543C39.3551 44.9543 39.7425 44.8437 40.0713 44.6223C40.4001 44.3977 40.654 44.0803 40.833 43.6702C41.0153 43.26 41.1064 42.7766 41.1064 42.22V42.2102C41.1064 41.6503 41.0169 41.1653 40.8379 40.7551C40.6589 40.345 40.4049 40.0292 40.0762 39.8079C39.7474 39.5833 39.3584 39.4709 38.9092 39.4709C38.665 39.4709 38.4372 39.51 38.2256 39.5881C38.014 39.663 37.8268 39.7704 37.6641 39.9104C37.5013 40.0471 37.3727 40.2115 37.2783 40.4036H37.1953V37.4836H36.1357V44.8665H37.1953V44.0315H37.2783C37.3792 44.2236 37.5094 44.3896 37.6689 44.5295C37.8317 44.6663 38.0173 44.7721 38.2256 44.8469C38.4339 44.9185 38.6618 44.9543 38.9092 44.9543ZM38.6064 44.0461C38.3135 44.0461 38.0596 43.9729 37.8447 43.8264C37.6299 43.6799 37.4655 43.47 37.3516 43.1965C37.2376 42.9198 37.1807 42.5943 37.1807 42.22V42.2102C37.1807 41.8326 37.2376 41.5071 37.3516 41.2336C37.4655 40.9602 37.6299 40.7502 37.8447 40.6038C38.0596 40.454 38.3135 40.3792 38.6064 40.3792C38.9027 40.3792 39.1566 40.454 39.3682 40.6038C39.5798 40.7502 39.7409 40.9602 39.8516 41.2336C39.9655 41.5038 40.0225 41.8293 40.0225 42.2102V42.22C40.0225 42.5976 39.9655 42.9231 39.8516 43.1965C39.7409 43.47 39.5798 43.6799 39.3682 43.8264C39.1566 43.9729 38.9027 44.0461 38.6064 44.0461ZM44.3528 44.969C44.6946 44.969 44.9957 44.925 45.2561 44.8372C45.5198 44.7493 45.7444 44.6337 45.9299 44.4905C46.1187 44.3472 46.2701 44.1894 46.384 44.0168C46.498 43.8411 46.5777 43.6653 46.6233 43.4895L46.633 43.4456H45.6077L45.5881 43.4846C45.5491 43.5758 45.4758 43.6685 45.3684 43.7629C45.2642 43.8573 45.1291 43.9371 44.9631 44.0022C44.8004 44.064 44.6051 44.095 44.3772 44.095C44.081 44.095 43.8238 44.0299 43.6057 43.8997C43.3909 43.7694 43.2248 43.5806 43.1077 43.3333C42.9905 43.0859 42.9319 42.788 42.9319 42.4397V42.0149C42.9319 41.6503 42.9905 41.3427 43.1077 41.092C43.2281 40.8414 43.3909 40.6526 43.5959 40.5256C43.8043 40.3954 44.0403 40.3303 44.3039 40.3303C44.5676 40.3303 44.8004 40.3922 45.0022 40.5159C45.204 40.6396 45.3619 40.8267 45.4758 41.0774C45.593 41.3248 45.6516 41.6373 45.6516 42.0149V42.4397L46.1594 41.7366H42.3996V42.4934H46.6868V42.1223C46.6868 41.5885 46.5907 41.123 46.3987 40.7258C46.2066 40.3254 45.9315 40.0146 45.5735 39.7932C45.2187 39.5719 44.7939 39.4612 44.2991 39.4612C43.8075 39.4612 43.3778 39.5767 43.01 39.8079C42.6454 40.039 42.3622 40.3612 42.1604 40.7747C41.9618 41.1881 41.8625 41.6715 41.8625 42.2249V42.2297C41.8625 42.7896 41.9618 43.2747 42.1604 43.6848C42.3622 44.095 42.6487 44.4124 43.0198 44.637C43.3909 44.8583 43.8352 44.969 44.3528 44.969ZM47.7554 44.8665H48.8149V37.4836H47.7554V44.8665Z" fill="#AEAFB4"/>
<path d="M36.9912 27.7422C41.9746 27.7422 46.0879 23.6289 46.0879 18.6543C46.0879 13.6797 41.9658 9.56641 36.9824 9.56641C32.0078 9.56641 27.9033 13.6797 27.9033 18.6543C27.9033 23.6289 32.0166 27.7422 36.9912 27.7422ZM37 22.2314C35.0049 22.2314 33.4053 20.6318 33.4053 18.6367C33.4053 16.6592 35.0049 15.0508 37 15.0508C38.9863 15.0508 40.5859 16.6592 40.5859 18.6367C40.5859 20.6318 38.9863 22.2314 37 22.2314Z" fill="#AEAFB4"/>
</svg>
